<!-- ©2026 SMS GATEWAY Mahin Ltd develop by (Tanvir) -->
<svg xmlns="http://www.w3.org/2000/svg" viewBox="0 0 108 108" width="108" height="108" role="img" aria-label="SMS Gateway favicon">
	<defs>
		<linearGradient id="bg" x1="0%" y1="100%" x2="100%" y2="0%">
			<stop offset="0%" stop-color="#3B82F6" />
			<stop offset="100%" stop-color="#22C55E" />
		</linearGradient>
	</defs>

	<rect x="0" y="0" width="108" height="108" rx="24" fill="url(#bg)" />

	<path
		fill="#FFFFFF"
		d="M34 36h40c3.3 0 6 2.7 6 6v24c0 3.3-2.7 6-6 6H46l-8 8v-8h-4c-3.3 0-6-2.7-6-6V42c0-3.3 2.7-6 6-6z"
	/>

	<path fill="#E2E8F0" d="M40 46h28v3H40zM40 54h18v3H40z" />

	<circle cx="78" cy="66" r="10" fill="#22C55E" />
	<path fill="#FFFFFF" d="M73 66l3 3 5-5 1.4 1.4-6.4 6.4-4.4-4.4z" />
</svg>